<svg xmlns="http://www.w3.org/2000/svg" width="82" height="40" fill="none"><path fill="#283841" d="M80.233 5.238a.115.115 0 0 0-.122-.113.115.115 0 0 0-.111.113v.108a.434.434 0 0 1-.867 0c0-.375-.21-.711-.473-.978-.477-.487-.767-1.178-.624-1.796C78.291 1.474 78.896 1 80 1a2 2 0 0 1 1.754 2.961c-.378.689-.93.863-.93 1.648v.676a.295.295 0 1 1-.591 0V5.238ZM44.138 8.472c5.989 1.026 12.572.4 18.39 1.833 6.724 2.003 10.516 7.48-.447 8.763-5.806.451-11.68-.503-17.412.511-6.07 1.24-12.303 3.329-18.894 2.317-6.037-.931-11.224-4.615-11.065-8.531-.033-3.848 5.624-6.046 11.102-6.749 6.295-.646 12.42.7 18.326 1.856Zm.35-.702C12.717.404 10.707 11.75 10.672 13.322c-.26 4.69 5.967 9.585 13.363 10.623 7.682 1.078 14.285-1.956 21.063-3.602 6.612-1.15 13.002.336 19.618-.228 11.022-.94 8.556-9.005.759-10.843-6.617-1.56-14.173-.337-20.985-1.503Z"/><path fill="#283841" d="M43.5 10.297c4.563.588 16.702 1.382 16.339 4.819-.464 2.006-9.936 1.766-16.058 2.421-5.342.53-18.48 1.431-18.314-4.01-.044-4.991 13.339-3.743 18.032-3.23Zm.188-.671c-4.666-.663-9.718-1.376-14.503-.752-3.667.478-7.75 1.988-7.663 4.588-.159 2.711 3.765 4.837 7.69 5.538 4.895.875 10.046-.046 14.852-.707 6.696-.81 18.739-.01 19.22-2.84.465-4.427-13.916-5.056-19.596-5.827Z"/><path fill="#283841" d="M43.455 12.278c2.325.127 7.881.707 7.347 2.039-.648 1.281-5.613 1.281-7.278 1.332-2.063.017-7.533.076-7.736-1.808.033-1.879 5.84-1.62 7.667-1.563Zm.073-.71c-2.817-.175-11.44-.71-11.47 2.213-.227 2.76 8.757 2.616 11.608 2.643 2.114-.027 9.661-.09 10.64-1.774.695-1.955-7.935-2.826-10.778-3.082Z"/><path fill="#283841" fill-rule="evenodd" d="M40.76 3.971c1.648.6 3.307 1.203 5.02 1.761 3.46 1.364 8.439.805 13.645.22 4.754-.534 9.697-1.089 13.849-.221 4.442.929 6.845 5.057 6.721 9.072l.004-.006v8.92c.027 4.167-2.648 8.318-8.57 8.762-3.56.267-7.033-.26-10.48-.782-4.812-.73-9.574-1.451-14.46 0-2.55.916-4.923 2.134-7.3 3.354-5.436 2.791-10.896 5.594-18.566 4.818C8.419 38.633-.086 31.91.001 22.569c.003-.174.015-.349.031-.523v-7.623a14.471 14.471 0 0 1-.031-1.126C.146 6.402 10.123.688 20.956.061 28.77-.392 34.68 1.759 40.76 3.97Zm17.115 3.005c-4.767.29-9.412.574-12.648-.438-1.042-.325-2.108-.67-3.178-1.015-2.627-.849-5.275-1.705-7.653-2.294C19.17-.535 4.731 5.103 4.01 13.29c-.548 5.43 7.254 13.414 17.678 14.613 4.725.415 8.777-.37 12.894-1.768 1.662-.617 3.262-1.292 4.861-1.967 2.113-.892 4.225-1.784 6.478-2.54 4.829-1.16 9.518-.627 14.056-.112 3.07.348 6.07.689 8.997.492 2.816-.32 5.101-1.02 6.516-2.634 2.87-3.85 2.583-10.333-5.096-12.206-3.6-.736-8.112-.46-12.518-.191Z" clip-rule="evenodd"/></svg>