<svg xmlns="http://www.w3.org/2000/svg" width="40" height="40" fill="none"><path fill="#FF1616" d="M16.658 40h-1.276c-3.317 0-5.312 0-6.836-.284l8.82-11.682L16.659 40Zm14.59-.249c-1.498.248-3.46.249-6.63.249H23.11l-.712-11.97 8.851 11.721Zm8.424-8.081a7.84 7.84 0 0 1-.233.873 10.905 10.905 0 0 1-3.052 4.655L26.44 26.044l13.232 5.627ZM3.485 37.08a10.903 10.903 0 0 1-2.924-4.537 7.94 7.94 0 0 1-.254-.963l13.017-5.534-9.839 11.033ZM40 24.618c0 1.125-.003 2.097-.014 2.951l-11.813-4.563H40v1.612Zm-28.404-1.612L.011 27.48C0 26.648 0 25.704 0 24.618v-1.612h11.596ZM24.618 0c4.163 0 6.244 0 7.925.561a10.91 10.91 0 0 1 6.896 6.896c.56 1.681.561 3.762.561 7.925v4.634H27.509l9.01-3.83-2.673-1.774-8.741 3.376 4.103-5.43-2.95-.808-4.532 5.078-.337-5.719h-3.006l-.343 5.72-4.528-5.079-2.95.808 4.099 5.428-8.736-3.374-2.672 1.774 9.007 3.83H0v-4.634c0-4.163 0-6.244.561-7.925A10.91 10.91 0 0 1 7.457.561C9.138.001 11.22 0 15.382 0h9.236Z"/></svg>