<svg xmlns="http://www.w3.org/2000/svg" width="43" height="40" fill="none"><path fill="#15447A" d="M20.866 3.942a9.885 9.885 0 0 0-.953-1.714A9.996 9.996 0 0 0 17.83.008c.432-.02.847-.001 1.23.041a6.5 6.5 0 0 1 .753.887c.61.86.955 1.756 1.046 2.298.004.026.014.05.028.072a.197.197 0 0 0 .027-.072c.09-.542.435-1.438 1.046-2.298.22-.31.47-.61.753-.887.384-.042.798-.06 1.23-.042a9.997 9.997 0 0 0-2.083 2.221 9.885 9.885 0 0 0-.952 1.714v.101a4.314 4.314 0 0 0-.021-.051 6.983 6.983 0 0 0-.021.051v-.101Z"/><path fill="#15447A" d="M20.887.488a6.136 6.136 0 0 0-1.07-.318 7.607 7.607 0 0 1 1.048 1.592v.088l.022-.044.02.044v-.088A7.607 7.607 0 0 1 21.957.17c-.434.09-.8.206-1.07.318ZM19.484 2.45A9.432 9.432 0 0 0 17.14.07a7.1 7.1 0 0 0-.68.126c.784.4 1.427 1.005 1.981 1.624.3.335.583.684.849 1.012.112.14.222.275.329.405.271.328.524.615.77.84a9.486 9.486 0 0 0-.906-1.625Zm-1.437-.365c-.65-.725-1.37-1.367-2.25-1.697-.29.101-.58.226-.867.376.783.147 1.46.568 2.047 1.045.423.345.817.734 1.174 1.087.137.135.268.265.393.384a5.913 5.913 0 0 0 .669.569c.121.018.247.045.38.082-.127-.14-.253-.29-.38-.443l-.34-.417a25.418 25.418 0 0 0-.826-.986Zm2.84 23.861.02.077v-.15c.105-.358.235-.708.378-1.052.178-.427.378-.847.577-1.26l.063-.13c.178-.37.354-.735.513-1.098.69-1.573 1.05-3.076-.054-4.693-.449.139-.98.2-1.497.204-.517-.004-1.049-.065-1.497-.204-1.105 1.617-.744 3.12-.055 4.693.16.363.335.728.514 1.098l.062.13c.2.413.4.834.577 1.26a9.9 9.9 0 0 1 .378 1.051v.15l.02-.076Z"/><path fill="#15447A" d="M18.93 17.463c-1.186 1.772-.763 3.425-.062 5.024.162.37.341.742.519 1.11l.063.13c.199.414.395.826.568 1.241.193.464.357.93.464 1.399a7.578 7.578 0 0 0-.994-1.33 13.373 13.373 0 0 0-.473-.836c-.17-.28-.35-.56-.529-.843-.374-.587-.752-1.18-1.064-1.786-.46-.892-.753-1.769-.661-2.615.08-.743.46-1.485 1.34-2.206.165.298.458.535.829.712Z"/><path fill="#15447A" d="M16.263 18.917c.1-.919.599-1.809 1.694-2.64a1.291 1.291 0 0 1 0-.188c.034-.04.113-.087.291-.137.177-.048.39-.083.637-.123l.254-.042c.343-.058.722-.134 1.06-.273.26-.106.502-.252.688-.461.185.208.428.355.687.46.338.14.718.216 1.06.274l.254.042c.247.04.46.075.637.123.178.05.257.097.292.137.004.064.004.127-.001.189 1.096.83 1.595 1.72 1.694 2.639.104.956-.23 1.914-.702 2.832-.32.622-.717 1.244-1.096 1.84-.089.14-.177.277-.262.413.707-.53 1.47-.964 2.248-1.408l.094-.054c.794-1.781.86-3.186.569-4.307-.347-1.334-1.207-2.297-2.027-3.035l-.006.005-.011.012a2.184 2.184 0 0 1-.177.164 1.174 1.174 0 0 1-.137.094.553.553 0 0 1-.138.055 1.14 1.14 0 0 1-.139.025 7.182 7.182 0 0 0-.77-.155l-.226-.037c-.337-.057-.664-.125-.943-.24-.267-.11-.476-.256-.604-.467l.158-.902c.049-.28.214-.536.477-.704l.08-.05.004-.003c.361-.23.736-.468 1.106-.842a.88.88 0 0 0 .25-.628 1.58 1.58 0 0 1-1.007.351h-2.729a1.58 1.58 0 0 1-1.007-.351c0 .228.079.454.25.628.37.374.745.612 1.106.842h.001l.083.053c.263.168.429.424.478.704l.157.902c-.128.21-.336.358-.604.468-.279.114-.606.182-.943.24l-.225.036a7.186 7.186 0 0 0-.77.155 1.14 1.14 0 0 1-.14-.025.553.553 0 0 1-.194-.089 1.174 1.174 0 0 1-.08-.06c-.05-.04-.11-.096-.178-.164l-.016-.017c-.821.738-1.681 1.7-2.028 3.035-.29 1.12-.225 2.526.569 4.307l.094.054c.778.444 1.541.879 2.248 1.407a96.59 96.59 0 0 0-.26-.411c-.38-.596-.777-1.22-1.098-1.841-.472-.918-.805-1.876-.702-2.832Z"/><path fill="#15447A" d="M17.144 14.84c-.866.769-1.834 1.816-2.22 3.298-.284 1.094-.245 2.408.36 4a16.741 16.741 0 0 1-1.824-1.213 4.153 4.153 0 0 1-.267-1.3c-.035-1.017.362-1.885.922-2.655.442-.608.975-1.142 1.474-1.642.138-.14.274-.275.405-.41a7.3 7.3 0 0 0 .72-.832h.03a3.277 3.277 0 0 0 .4.753Z"/><path fill="#15447A" d="M16.325 13.805a1.6 1.6 0 0 0 .235-.483 3.086 3.086 0 0 1-.003-.642c.018-.18.046-.41.062-.546l-.145-.11a6.895 6.895 0 0 1-.103-.08 2.114 2.114 0 0 1-.042.12 3.943 3.943 0 0 1-.47.834c-.454.637-1.214 1.44-2.42 2.366-1.443 1.11-1.92 2.216-1.903 3.197.004.21.03.415.076.616.37.483.762.901 1.168 1.273a4.231 4.231 0 0 1-.087-.711c-.039-1.131.405-2.084.999-2.9.464-.639 1.03-1.206 1.532-1.709.135-.135.265-.265.387-.391.293-.302.54-.576.714-.834Z"/><path fill="#15447A" d="M15.942 11.57a1.123 1.123 0 0 1-.087.355c-.077.198-.21.448-.422.745-.422.593-1.147 1.364-2.325 2.27-1.441 1.108-2.02 2.253-2.069 3.322a12.278 12.278 0 0 1-.491-.83c.007-.182.028-.363.062-.543.208-1.08.922-2.14 2.333-3.101 1.207-.823 1.894-1.593 2.292-2.18a5.07 5.07 0 0 0 .296-.491 4.7 4.7 0 0 0 .41.453Z"/><path fill="#15447A" d="m15.176 10.732.036-.08a3.615 3.615 0 0 1-.325-.726 8.15 8.15 0 0 1-.645.713c-.556.553-1.369 1.243-2.504 2.013-1.295.879-1.817 2.02-1.972 2.983.112.332.241.666.39 1 .275-1.137 1.062-2.223 2.478-3.188 1.158-.79 1.804-1.52 2.17-2.059.184-.27.298-.493.372-.656Z"/><path fill="#15447A" d="M14.746 9.281c-.092.18-.36.555-.881 1.073-.533.53-1.322 1.202-2.435 1.957-1.042.707-1.628 1.568-1.932 2.394a10.655 10.655 0 0 1-.293-2.211c.275-.612 1.065-1.554 2.781-2.253 1.125-.458 1.948-1 2.512-1.484.083-.07.16-.14.233-.21-.018.23-.017.476.015.734Zm-.599-.832c.409-.35.654-.654.771-.844a4.8 4.8 0 0 1 .18-.474 5.268 5.268 0 0 1-.382-.16c-.451.332-1.27.843-2.955 1.424-.93.322-1.5.806-1.83 1.34a2.708 2.708 0 0 0-.39 1.508c.503-.489 1.228-.986 2.233-1.395 1.072-.436 1.849-.95 2.373-1.4Zm1.146-1.717c-1.52-.573-2.123-1.642-2.139-2.594-.016-1.011.61-1.813 1.436-1.904.37-.041.743.121 1.289.523.258.19.54.422.867.692l.037.03c.27.222.567.467.9.727a5.97 5.97 0 0 0-.425.311c-.34-.487-1.25-.983-3.035-.88-.138.007-.242.11-.233.23.009.12.128.21.266.202 1.852-.106 2.474.465 2.623.758l-.068.058c-.406-.104-.9-.126-1.365-.103-.522.026-1.04.11-1.41.216-.13.038-.201.161-.158.275.044.113.185.175.316.137.321-.093.794-.17 1.28-.195a4.96 4.96 0 0 1 .945.036 6.505 6.505 0 0 0-1.126 1.48Z"/><path fill="#15447A" d="M17.128 3.165c.299.246.628.516 1 .804a2 2 0 0 1 .358-.109 10.05 10.05 0 0 1-.313-.288c-.136-.13-.274-.267-.414-.406-.352-.347-.72-.711-1.124-1.04a5.897 5.897 0 0 0-.68-.483c-.983-.59-2.232-.23-3.019.604-1.298 1.377-.843 2.486-.4 3.485-.547.07-1.127.463-1.647 1.101.36-.19.735-.33 1.099-.432a6.662 6.662 0 0 1 1.552-.241c-.602-.607-.875-1.332-.886-2.016-.018-1.12.685-2.21 1.873-2.34.6-.067 1.123.216 1.675.622.269.198.56.438.883.703l.043.036Zm-4.986 3.649a5.047 5.047 0 0 0-1.083.438c-.622.346-1.046.955-1.288 1.625a8.37 8.37 0 0 0-.154.463c.4-.55 1.031-1.027 1.96-1.348 1.48-.51 2.254-.959 2.69-1.263a4.197 4.197 0 0 1-.19-.122c-.4-.041-1.143-.015-1.935.207Zm7.81 1.236-.818 2.447c.226-.687.152-1.351.055-1.811-.335.03-.58.007-.81-.044-.608-.135-1.013-.602-1.4-1.046a10.862 10.862 0 0 0-.17-.196 3.889 3.889 0 0 0-.28-.279c.176.028.348.053.518.078 1.046.154 1.967.289 2.905.85Zm-.818 2.447-.009.028.01-.028ZM22.29 2.45A9.432 9.432 0 0 1 24.631.07a7.1 7.1 0 0 1 .681.126c-.784.4-1.427 1.005-1.982 1.624-.3.335-.583.684-.848 1.012l-.33.405a8.474 8.474 0 0 1-.77.84c.175-.408.468-.99.907-1.625Zm1.436-.365c.65-.725 1.371-1.367 2.25-1.697.29.101.58.226.868.376-.783.147-1.46.568-2.047 1.045-.424.345-.818.734-1.175 1.087-.136.135-.267.265-.392.384a5.913 5.913 0 0 1-.67.569 3.107 3.107 0 0 0-.38.082c.127-.14.253-.29.38-.443l.34-.417c.263-.325.533-.66.826-.986Zm-.883 15.378c1.186 1.772.764 3.425.063 5.024-.163.37-.342.742-.52 1.11l-.062.13c-.2.414-.395.826-.569 1.241a8.602 8.602 0 0 0-.463 1.399c.299-.507.633-.944.994-1.33.141-.277.303-.556.473-.836.17-.28.349-.56.528-.843.374-.587.752-1.18 1.064-1.786.46-.892.753-1.769.661-2.615-.08-.743-.46-1.485-1.34-2.206-.164.298-.458.535-.829.712Zm1.787-2.623c.866.769 1.834 1.816 2.219 3.298.284 1.094.246 2.408-.36 4 .615-.362 1.23-.75 1.824-1.213.171-.463.253-.895.267-1.3.035-1.017-.362-1.885-.921-2.655-.442-.608-.976-1.142-1.474-1.642a43.838 43.838 0 0 1-.405-.41 7.3 7.3 0 0 1-.72-.832h-.03a3.277 3.277 0 0 1-.4.753Z"/><path fill="#15447A" d="M25.448 13.805a1.602 1.602 0 0 1-.235-.483c.024-.212.025-.427.003-.642-.018-.18-.045-.41-.062-.546l.146-.11.102-.08c.013.04.027.08.043.12.091.235.243.515.47.834.453.637 1.213 1.44 2.418 2.366 1.444 1.11 1.921 2.216 1.904 3.197a3.08 3.08 0 0 1-.075.616 9.964 9.964 0 0 1-1.168 1.273c.05-.243.078-.48.086-.711.039-1.131-.405-2.084-.998-2.9-.465-.639-1.03-1.206-1.533-1.709a40.67 40.67 0 0 1-.387-.391c-.293-.302-.54-.576-.713-.834Z"/><path fill="#15447A" d="M25.831 11.57c.003.078.025.196.087.355a3.6 3.6 0 0 0 .422.745c.422.593 1.148 1.364 2.325 2.27 1.442 1.108 2.02 2.253 2.07 3.322.178-.276.341-.553.49-.83a3.653 3.653 0 0 0-.062-.543c-.208-1.08-.922-2.14-2.332-3.101-1.207-.823-1.895-1.593-2.293-2.18a5.031 5.031 0 0 1-.296-.491 4.7 4.7 0 0 1-.41.453Z"/><path fill="#15447A" d="M26.597 10.732a4.262 4.262 0 0 1-.036-.08c.143-.245.25-.488.326-.726.16.202.372.442.645.713.555.553 1.368 1.243 2.503 2.013 1.295.879 1.817 2.02 1.972 2.983a11.35 11.35 0 0 1-.39 1c-.274-1.137-1.062-2.223-2.477-3.188-1.159-.79-1.805-1.52-2.17-2.059a4.425 4.425 0 0 1-.373-.656Z"/><path fill="#15447A" d="M27.028 9.281c.091.18.36.555.88 1.073.534.53 1.323 1.202 2.435 1.957 1.043.707 1.628 1.568 1.932 2.394.182-.757.274-1.499.293-2.211-.275-.612-1.064-1.554-2.781-2.253-1.124-.458-1.948-1-2.512-1.484-.083-.07-.16-.14-.232-.21.017.23.016.476-.015.734Zm.599-.832c-.41-.35-.655-.654-.772-.844a4.8 4.8 0 0 0-.18-.474c.134-.05.261-.104.383-.16.45.332 1.27.843 2.954 1.424.93.322 1.501.806 1.83 1.34.294.475.403 1.002.39 1.508-.503-.489-1.228-.986-2.233-1.395-1.072-.436-1.848-.95-2.372-1.4ZM26.48 6.732c1.52-.573 2.123-1.642 2.139-2.594.016-1.011-.61-1.813-1.436-1.904-.37-.041-.743.121-1.288.523-.258.19-.54.422-.868.692l-.037.03c-.27.222-.567.467-.9.727.144.094.284.2.425.311.34-.487 1.25-.983 3.035-.88.138.007.243.11.233.23-.009.12-.128.21-.266.202-1.852-.106-2.473.465-2.622.758l.067.058c.406-.104.9-.126 1.365-.103.522.026 1.04.11 1.41.216.13.038.202.161.158.275-.044.113-.185.175-.316.137a5.994 5.994 0 0 0-1.28-.195 4.877 4.877 0 0 0-.944.036c.465.465.844.965 1.125 1.48Z"/><path fill="#15447A" d="M24.646 3.165c-.3.246-.628.516-1 .804a1.999 1.999 0 0 0-.36-.109 9.04 9.04 0 0 0 .314-.288c.136-.13.274-.267.415-.406.351-.347.72-.711 1.123-1.04.214-.174.442-.34.68-.483.983-.59 2.233-.23 3.019.604 1.298 1.377.844 2.486.4 3.485.548.07 1.128.463 1.648 1.101a5.66 5.66 0 0 0-1.1-.432 6.663 6.663 0 0 0-1.551-.241c.601-.607.874-1.332.885-2.016.018-1.12-.685-2.21-1.873-2.34-.6-.067-1.123.216-1.675.622-.269.198-.56.438-.882.703l-.043.036Zm4.985 3.649a5.02 5.02 0 0 1 1.083.438c.623.346 1.046.955 1.288 1.625.055.15.106.304.154.463-.4-.55-1.031-1.027-1.96-1.348-1.48-.51-2.253-.959-2.69-1.263.066-.04.13-.08.19-.122.4-.041 1.144-.015 1.935.207ZM21.822 8.05l.817 2.447.01.028-.01-.028c-.226-.687-.152-1.351-.054-1.811.335.03.579.007.81-.044.607-.135 1.012-.602 1.398-1.046l.172-.196c.078-.088.17-.179.28-.279-.177.028-.35.053-.518.078-1.047.154-1.968.289-2.905.85Z"/><path fill="#15447A" fill-rule="evenodd" d="M4.029 33.16a2.862 2.862 0 0 1-.199-1.08c0-.392.066-.749.199-1.072a2.446 2.446 0 0 1 1.417-1.395 2.96 2.96 0 0 1 1.101-.198c.401 0 .766.066 1.094.198.333.127.62.31.86.55.244.235.433.517.565.845.132.323.198.68.198 1.072s-.066.751-.198 1.08a2.487 2.487 0 0 1-1.425 1.394 2.988 2.988 0 0 1-1.094.191 3.06 3.06 0 0 1-1.101-.19 2.665 2.665 0 0 1-.86-.551 2.542 2.542 0 0 1-.557-.845Zm4.222-1.08a1.77 1.77 0 0 0-.22-.896 1.548 1.548 0 0 0-.595-.61 1.746 1.746 0 0 0-.889-.22c-.333 0-.629.074-.888.22-.255.148-.456.35-.603.61a1.81 1.81 0 0 0-.212.896c0 .338.07.636.212.896a1.6 1.6 0 0 0 .603.61c.26.146.555.22.888.22.338 0 .634-.074.889-.22.254-.148.452-.35.594-.61.147-.26.22-.558.22-.896Z" clip-rule="evenodd"/><path fill="#15447A" d="M2.717 33.703h-1.49v-3.29c0-.23.021-.409.065-.536a.54.54 0 0 1 .199-.271v-.06H.022v.06a.34.34 0 0 1 .071.075.793.793 0 0 1 .098.21c.04.128.059.302.059.522v3.334c0 .22-.022.396-.066.528a.57.57 0 0 1-.184.28v.058h2.96c.112 0 .222.003.33.008a1.943 1.943 0 0 1 .3.05v-1.21h-.058a.572.572 0 0 1-.286.183c-.133.04-.309.059-.53.059Zm11.321-2.901h.059V29.51a.734.734 0 0 1-.35.037c-.079-.01-.18-.03-.304-.059a2.564 2.564 0 0 0-.66-.073c-.578 0-1.085.112-1.52.337-.431.22-.767.531-1.007.933-.24.396-.36.861-.36 1.395 0 .387.067.744.199 1.072.132.323.32.605.565.844.245.24.531.426.86.558.332.128.697.191 1.093.191.52 0 .967-.107 1.344-.323.377-.215.666-.514.867-.895.205-.382.308-.823.308-1.322 0-.098.012-.184.037-.257a.539.539 0 0 1 .117-.184v-.058H12.93a3.942 3.942 0 0 1-.242-.008l-.02-.002-.044-.003-.024-.002a2.323 2.323 0 0 1-.301-.044v1.197h.058a.589.589 0 0 1 .294-.199 1.21 1.21 0 0 1 .295-.068c.074-.008.154-.012.241-.012h.903a1.18 1.18 0 0 1-.19.624 1.34 1.34 0 0 1-.53.455c-.22.108-.472.162-.756.162a1.78 1.78 0 0 1-.888-.22 1.6 1.6 0 0 1-.602-.61 1.836 1.836 0 0 1-.213-.896c0-.348.078-.651.235-.91.157-.26.377-.46.66-.603a2.253 2.253 0 0 1 1.007-.213c.137 0 .264.01.382.03.122.014.234.041.337.08a.94.94 0 0 1 .294.155c.093.068.164.13.213.183Z"/><path fill="#15447A" fill-rule="evenodd" d="M15.917 33.16a2.863 2.863 0 0 1-.198-1.08c0-.392.066-.749.198-1.072a2.447 2.447 0 0 1 1.417-1.395 2.96 2.96 0 0 1 1.102-.198c.401 0 .766.066 1.094.198.333.127.62.31.86.55.244.235.432.517.564.845.133.323.199.68.199 1.072s-.066.751-.198 1.08a2.486 2.486 0 0 1-1.425 1.394 3 3 0 0 1-1.094.191c-.401 0-.768-.063-1.102-.19a2.666 2.666 0 0 1-.859-.551 2.543 2.543 0 0 1-.558-.845Zm4.223-1.08a1.77 1.77 0 0 0-.22-.896 1.548 1.548 0 0 0-.596-.61 1.746 1.746 0 0 0-.888-.22c-.333 0-.629.074-.889.22a1.61 1.61 0 0 0-.602.61 1.81 1.81 0 0 0-.213.896c0 .338.071.636.213.896a1.6 1.6 0 0 0 .602.61c.26.146.556.22.889.22.338 0 .634-.074.889-.22.254-.148.452-.35.594-.61.147-.26.22-.558.22-.896Z" clip-rule="evenodd"/><path fill="#15447A" d="M21.925 29.892c.04.127.059.3.059.521v3.334c0 .22-.02.396-.059.528a.555.555 0 0 1-.169.28v.058h1.432v-.059a.554.554 0 0 1-.169-.279 1.251 1.251 0 0 1-.037-.179 2.545 2.545 0 0 1-.022-.35v-3.333c0-.22.02-.394.06-.521a.557.557 0 0 1 .168-.287v-.058h-1.432v.058c.073.06.13.155.169.287Z"/><path fill="#15447A" fill-rule="evenodd" d="M24.968 33.747c0 .225.022.404.066.536a.789.789 0 0 0 .086.162.484.484 0 0 0 .113.11v.058h-1.47v-.059a.412.412 0 0 0 .105-.125.66.66 0 0 0 .065-.154 1.92 1.92 0 0 0 .058-.528v-3.334c0-.22-.021-.394-.066-.521a.571.571 0 0 0-.183-.287v-.058h1.828c.627 0 1.116.161 1.469.484.357.323.536.769.536 1.337 0 .377-.081.702-.242.976-.162.27-.392.478-.69.624-.3.147-.657.22-1.073.22h-.602v.559Zm.558-1.454h-.558v-1.85h.558c.338 0 .595.078.771.234.176.157.264.387.264.69 0 .3-.088.53-.264.69-.176.158-.433.236-.77.236Z" clip-rule="evenodd"/><path fill="#15447A" d="M29.487 30.237c-.18.254-.36.6-.536 1.035l-.565 1.388a3.663 3.663 0 0 1-.316.639.886.886 0 0 1-.279.3.551.551 0 0 1-.294.082.626.626 0 0 1-.264-.06.534.534 0 0 1-.021-.01l-.017-.01a.592.592 0 0 1-.123-.104h-.06V34.6a1.477 1.477 0 0 0 .37.05h.079c.23 0 .435-.031.617-.095.186-.063.352-.163.499-.3.147-.142.286-.324.418-.544.133-.22.262-.487.39-.8l.565-1.388c.113-.28.218-.492.316-.639.102-.152.198-.254.286-.308a.464.464 0 0 1 .257-.088c.078 0 .15.017.213.051.064.03.113.064.147.103h.058v-1.153a.591.591 0 0 1-.176.03h-.095a.994.994 0 0 0-.147-.008c-.27 0-.512.056-.727.169-.21.113-.409.299-.595.558Zm2.219.176c0-.104-.004-.197-.013-.28a1.286 1.286 0 0 0-.046-.241.557.557 0 0 0-.168-.287v-.058h1.431v.058a.558.558 0 0 0-.169.287 1.292 1.292 0 0 0-.047.26 2.776 2.776 0 0 0-.011.261v2.357c0 .338.073.595.22.771.147.176.362.265.646.265.284 0 .5-.089.646-.265.147-.176.22-.433.22-.77v-2.358c0-.22-.02-.394-.058-.521a.558.558 0 0 0-.17-.287v-.058h1.433v.058a.429.429 0 0 0-.096.114l-.009.015a.659.659 0 0 0-.064.158c-.04.127-.059.3-.059.521v2.401c0 .416-.07.769-.213 1.058a1.402 1.402 0 0 1-.617.653c-.274.147-.611.22-1.013.22-.401 0-.74-.073-1.013-.22a1.443 1.443 0 0 1-.624-.653c-.137-.29-.206-.642-.206-1.058v-2.4Zm4.604-.492c.043.147.065.33.065.55v3.276c0 .22-.02.396-.059.528a.555.555 0 0 1-.169.28v.058h1.432v-.059a.554.554 0 0 1-.169-.279 1.92 1.92 0 0 1-.058-.528V31.3l1.46 1.301h.03l1.454-1.316v2.462c0 .22-.02.396-.059.528a.743.743 0 0 1-.069.162.478.478 0 0 1-.1.117v.06H41.5v-.06a.481.481 0 0 1-.135-.188.868.868 0 0 1-.034-.09 1.925 1.925 0 0 1-.058-.53v-3.274c0-.22.022-.404.066-.55a.92.92 0 0 1 .089-.197c.03-.05.064-.09.102-.12v-.058h-1.307v.044c.068.093.09.205.066.338-.02.127-.096.252-.228.374l-1.217 1.13-1.309-1.174a.564.564 0 0 1-.198-.345.42.42 0 0 1 .088-.323v-.044h-1.307v.058a.46.46 0 0 1 .12.144.84.84 0 0 1 .071.172Z"/><path fill="#15447A" fill-rule="evenodd" d="M23.49 38.802c0 .385.067.68.2.888a.64.64 0 0 0 .571.31.638.638 0 0 0 .574-.31c.133-.207.2-.503.2-.888s-.067-.681-.2-.888a.639.639 0 0 0-.574-.31.64.64 0 0 0-.57.31c-.134.207-.201.503-.201.888Zm1.255 0c0 .305-.041.536-.124.694-.08.158-.2.237-.36.237-.158 0-.278-.079-.36-.237-.083-.158-.124-.39-.124-.694 0-.305.041-.536.123-.694.083-.158.203-.237.361-.237.16 0 .28.079.36.237.083.158.124.389.124.694Z" clip-rule="evenodd"/><path fill="#15447A" d="M22.826 39.69h-.632l.391-.531c.145-.196.248-.365.31-.507a1.17 1.17 0 0 0 .065-.174.845.845 0 0 0 .032-.227.577.577 0 0 0-.2-.464c-.133-.115-.315-.173-.544-.173h-.028a1.428 1.428 0 0 0-.179.016 1.351 1.351 0 0 0-.137.034.343.343 0 0 1-.086.013h-.037a.566.566 0 0 0-.05-.007v.418h.023a.395.395 0 0 1 .054-.067.528.528 0 0 1 .217-.117.632.632 0 0 1 .187-.027.53.53 0 0 1 .353.11.365.365 0 0 1 .13.3.665.665 0 0 1-.046.228 1.726 1.726 0 0 1-.15.29 5.328 5.328 0 0 1-.264.39l-.537.735v.023h1.224a.804.804 0 0 1 .23.023v-.42h-.026a.234.234 0 0 1-.107.1.458.458 0 0 1-.193.034Zm-8.522-.007h-.828v-.898h.428a.43.43 0 0 1 .163.024.183.183 0 0 1 .068.044l.005.005.002.003.002.003.003.005h.024v-.434h-.024a.19.19 0 0 1-.104.068.523.523 0 0 1-.14.015h-.427v-.597h.808c.083 0 .147.01.194.033a.213.213 0 0 1 .107.1h.026v-.427a.97.97 0 0 1-.2.023h-1.338v.027a.2.2 0 0 1 .083.104.514.514 0 0 1 .034.206v1.63a.514.514 0 0 1-.034.206.244.244 0 0 1-.037.064.165.165 0 0 1-.046.04v.026H14.4c.042 0 .084.001.123.004a.56.56 0 0 1 .107.02v-.427h-.023a.234.234 0 0 1-.107.1.312.312 0 0 1-.058.019.604.604 0 0 1-.139.014Zm1.612-1.659h-.024a.233.233 0 0 0-.06-.053.285.285 0 0 0-.147-.06.317.317 0 0 0-.09-.01.412.412 0 0 0-.273.086.275.275 0 0 0-.104.22v.022a.338.338 0 0 0 .017.086c.01.027.023.052.04.076a.797.797 0 0 0 .197.17l.173.114a1.63 1.63 0 0 1 .154.115.994.994 0 0 1 .087.085.679.679 0 0 1 .143.214.598.598 0 0 1 .047.25c0 .187-.068.34-.204.457-.133.116-.324.174-.574.174a1.67 1.67 0 0 1-.197-.013 1.602 1.602 0 0 1-.16-.024v-.373h.024l.053.053a.392.392 0 0 0 .06.037.418.418 0 0 0 .158.051.462.462 0 0 0 .076.005.51.51 0 0 0 .333-.1.333.333 0 0 0 .124-.267.359.359 0 0 0-.094-.248.701.701 0 0 0-.082-.083c-.044-.04-.1-.08-.165-.123l-.17-.117a1.069 1.069 0 0 1-.18-.144.547.547 0 0 1-.166-.375.513.513 0 0 1 .19-.455c.128-.107.305-.16.53-.16a.974.974 0 0 1 .093.004l.017.002.02.002h.016l.013.001a.857.857 0 0 0 .064-.002.444.444 0 0 0 .06-.014v.397Zm.608-.104h.377v1.716c0 .085-.01.15-.03.194a.23.23 0 0 1-.035.06.185.185 0 0 1-.045.04v.023h.507v-.023a.22.22 0 0 1-.083-.1.359.359 0 0 1-.021-.087l-.002-.018-.002-.02v-.01l-.001-.008v-.019l-.001-.019v-1.728h.377a.457.457 0 0 1 .222.048.216.216 0 0 1 .078.085h.027v-.427a1.1 1.1 0 0 1-.23.023h-1.235a1.194 1.194 0 0 1-.23-.023v.427h.026a.21.21 0 0 1 .104-.1.482.482 0 0 1 .197-.033Z"/><path fill="#15447A" fill-rule="evenodd" d="M18.842 37.65c.27 0 .5.046.691.137a.99.99 0 0 1 .444.397c.105.172.157.378.157.618s-.052.447-.157.62a.996.996 0 0 1-.444.394 1.593 1.593 0 0 1-.69.137h-.725v-.026a.2.2 0 0 0 .084-.104.514.514 0 0 0 .033-.207v-1.629a.852.852 0 0 0-.004-.083.4.4 0 0 0-.03-.123l-.004-.011-.004-.008-.002-.004-.005-.011a.177.177 0 0 0-.067-.07v-.027h.723Zm.992 1.152a.892.892 0 0 0-.117-.464.77.77 0 0 0-.33-.307 1.074 1.074 0 0 0-.505-.11h-.36v1.762h.36c.196 0 .364-.036.505-.107a.802.802 0 0 0 .33-.307.91.91 0 0 0 .117-.467Z" clip-rule="evenodd"/><path fill="#15447A" d="M20.32 39.78a.206.206 0 0 0 .057.147c.04.04.09.06.15.06.059 0 .107-.02.144-.06a.2.2 0 0 0 .06-.147.196.196 0 0 0-.06-.144.189.189 0 0 0-.143-.06c-.06 0-.11.02-.15.06a.202.202 0 0 0-.057.144Zm5.842-.144c0 .085.01.15.03.194a.241.241 0 0 0 .086.1v.023h-.524v-.023a.2.2 0 0 0 .06-.055.247.247 0 0 0 .027-.045.446.446 0 0 0 .034-.194v-1.612l-.508.244h-.027v-.277l.795-.364h.026v2.01Z"/><path fill="#15447A" fill-rule="evenodd" d="m27.672 39.022-.58.908v.023h.32l.604-.991c.078-.127.133-.24.167-.337a1.006 1.006 0 0 0 .05-.297.708.708 0 0 0-.1-.377.66.66 0 0 0-.27-.254.754.754 0 0 0-.193-.072.922.922 0 0 0-.423.004.734.734 0 0 0-.456.335.737.737 0 0 0-.1.387.848.848 0 0 0 .028.214.691.691 0 0 0 .693.507.686.686 0 0 0 .26-.05Zm.277-.68a.5.5 0 0 1-.01.103.466.466 0 0 1-.48.38.502.502 0 0 1-.25-.06.453.453 0 0 1-.171-.167.507.507 0 0 1-.06-.247c0-.095.02-.179.06-.25a.446.446 0 0 1 .174-.167.5.5 0 0 1 .253-.063c.093 0 .176.02.247.06a.447.447 0 0 1 .237.41Z" clip-rule="evenodd"/><path fill="#15447A" d="M42.808 29.087a.439.439 0 1 1-.877 0 .439.439 0 0 1 .877 0Z"/></svg>